<?xml version="1.0" encoding="UTF-8" standalone="no"?>
<svg
   xmlns:dc="http://purl.org/dc/elements/1.1/"
   xmlns:cc="http://creativecommons.org/ns#"
   xmlns:rdf="http://www.w3.org/1999/02/22-rdf-syntax-ns#"
   xmlns:svg="http://www.w3.org/2000/svg"
   xmlns="http://www.w3.org/2000/svg"
   version="1.1"
   id="svg4653"
   viewBox="0 0 744.09448819 1052.3622047"
   height="297mm"
   width="210mm">
  <defs
     id="defs4655" />
  <metadata
     id="metadata4658">
    <rdf:RDF>
      <cc:Work
         rdf:about="">
        <dc:format>image/svg+xml</dc:format>
        <dc:type
           rdf:resource="http://purl.org/dc/dcmitype/StillImage" />
        <dc:title></dc:title>
      </cc:Work>
    </rdf:RDF>
  </metadata>
  <g
     id="layer1">
    <path
       id="path4181"
       style="fill:#fcd029;fill-opacity:1;fill-rule:evenodd;stroke:none"
       d="m 121.11598,148.98998 c 0,1.28375 -0.13375,2.10875 1.03125,3.2625 2.2325,2.2125 5.265,1.95625 5.265,-0.54375 0,-0.64875 -0.29375,-1.08 -0.73125,-1.27125 -0.74125,-0.3225 -0.67125,-0.09 -1.415,-0.58875 l 0,-0.85875 c 0.41,-0.095 0.87875,-0.56375 2.055,0.0912 0.55,0.305 1.06125,0.805 1.4875,1.23125 1.085,1.08125 1.475,1.925 1.85875,3.57875 l 5.59375,25.6025 c 0.11625,0.45875 0.1225,0.73625 0.4525,0.9775 0,-0.7875 0.26375,-1.5675 0.395,-2.18 l 2.40375,-10.61875 c 1.14625,-4.51125 2.125,-10.235 3.465,-14.85125 1.5525,-5.34125 6.71375,-4.45125 4.16375,-2.41875 -1.39625,1.1125 -1.4825,3.59625 0.87875,3.59625 3.585,0 5.23125,-5.02125 2.97375,-7.41125 -1.99375,-2.11125 -5.765,-1.085 -7.8825,0.5 -2.9875,2.23625 -4.4825,6.4575 -5.62875,9.96875 -0.1475,0.44875 -0.23375,0.79 -0.355,1.21875 -0.11625,0.405 -0.1675,0.80875 -0.41375,1.16125 -0.17,-0.73 -0.40125,-1.56875 -0.63125,-2.37375 -0.2275,-0.79625 -0.46625,-1.655 -0.7575,-2.39 -1.20375,-3.03375 -2.27749,-5.51125 -4.94625,-7.50375 -0.93625,-0.69875 -3.3725,-1.755 -4.54,-1.755 -1.4725,0 -1.5325,-0.1525 -2.675,0.4725 l -0.89125,0.68375 c -0.54125,0.565 -1.15625,1.415 -1.15625,2.42" />
    <path
       id="path4183"
       style="fill:#fcd029;fill-opacity:1;fill-rule:evenodd;stroke:none"
       d="m 167.33848,102.48373 c 0,3.4475 0.8475,5.18625 3.1125,7.4775 0.64625,0.655 1.02,0.855 1.78125,1.36625 1.8775,1.26125 4.3775,2.12 6.645,2.8 0.8,0.23875 1.745,0.49 2.485,0.6625 l -2.2725,0.7325 c -5.82875,1.85125 -11.75125,4.2 -11.75125,11.145 0,2.88625 4.11875,4.7525 7.18,2.31375 1.83,-1.4575 2.07375,-4.7475 -0.31125,-4.7475 -0.7825,0 -1.51125,0.52125 -1.88,0.98375 -1.79875,2.25625 -2.5925,-1.46875 0.54375,-3.32125 1.29125,-0.76125 2.325,-0.995 3.91375,-1.38125 l 18.08125,-4.1 c 0.39,-0.0987 0.5675,-0.19125 1.01125,-0.27625 l 4.22125,-0.93 c 0.69875,-0.14375 1.47625,-0.41875 2.3,-0.41875 -0.33625,-0.46125 -1.19,-0.45875 -2.085,-0.6325 -0.42625,-0.085 -0.62875,-0.165 -1.03125,-0.2575 l -14.73625,-3.15125 c -2.945,-0.63 -5.93875,-1.37 -8.96625,-2.05375 -1.84125,-0.415 -3.9225,-1.82 -4.66875,-3.48875 -0.41375,-0.92375 -0.35875,-1.39125 0.29125,-2.0075 1.475,0.34375 0.5925,1.2975 1.4625,1.9725 1.18625,0.9225 3.9625,-0.0875 2.7075,-3.1375 -1.62625,-3.948753 -6.005,-3.455003 -7.57875,-0.8125 -0.1575,0.26375 -0.455,0.895 -0.455,1.2625" />
    <path
       id="path4185"
       style="fill:#fcd029;fill-opacity:1;fill-rule:evenodd;stroke:none"
       d="m 126.26723,81.591227 c -0.95625,0 -1.00125,-0.3425 -1.00125,-0.85875 0,-1.0475 2.14625,-0.3225 2.14625,-2.00375 0,-2.07 -1.61875,-2.575 -3.35125,-1.92 -0.60375,0.22875 -1.4225,0.76125 -1.8425,1.16375 -1.59125,1.52375 -1.46125,4.13875 0.003,5.6625 0.31375,0.32625 0.53125,0.56125 0.9225,0.79375 2.0325,1.20625 5.425,-0.0725 7.1625,-1.23125 3.6,-2.40375 5.45625,-8.255 6.4075,-12.33875 0.2575,0.37 0.57,1.76 0.7325,2.2725 0.24125,0.76 0.49875,1.53625 0.78625,2.3625 1.84375,5.2875 4.53875,9.38875 10.35875,9.38875 1.01125,0 1.88625,-0.62 2.40125,-1.17625 2.21,-2.3925 0.7525,-7.40875 -3.11625,-7.40875 -2.11375,0 -2.11125,2.46625 -0.81625,3.535 1.315,1.08375 0.64875,1.61625 0.24375,1.61625 -1.77625,0 -2.66499,-0.69 -3.60875,-2.25875 l -1.05,-2.8125 -4.555,-19.915 c -0.17,-0.74125 -0.37,-1.49375 -0.47875,-2.0975 -0.19875,-1.1075 -0.8975,-3.63375 -0.8975,-4.3975 l -0.28625,0 c -0.01,0.50625 -0.0962,0.62 -0.19875,1.0875 l -4.39,20.3675 c -0.0937,0.42 -0.1775,0.605 -0.2575,1.03 -0.10375,0.55875 -0.0962,0.535 -0.245,1.0425 -0.5025,1.7225 -0.68375,4.4075 -1.96,5.91 -0.5275,0.62125 -2.14,2.18625 -3.10875,2.18625" />
    <path
       id="path4187"
       style="fill:#fcd029;fill-opacity:1;fill-rule:evenodd;stroke:none"
       d="m 100.36473,105.48873 c 0.6475,0 1.12375,-0.1825 1.38375,-0.62 0.22375,-0.37875 0.11125,-0.34 0.22875,-0.7725 0.13,-0.47125 0.14,-0.3775 0.39125,-0.75375 l 0.85875,0 c 0.10125,0.4375 0.53625,0.80625 -0.0413,1.9625 -0.84625,1.69125 -2.81375,3.00125 -4.740003,3.41625 l -3.1175,0.74625 c -0.46,0.12875 -0.70375,0.12375 -1.195,0.23625 l -15.485,3.40375 c -0.64625,0.13875 -1.5025,0.29125 -2.23875,0.48125 l -4.5225,1.20125 c 0.7525,0.0163 3.31375,0.71125 4.255,0.89625 4.675,0.9225 9.94,2.3 14.695,3.33625 0.77375,0.16875 1.4525,0.3025 2.11625,0.46 1.42375,0.33625 2.73875,0.61 4.1775,0.975 1.7325,0.43875 4.167503,0.98375 5.342503,2.385 1.77125,2.1125 0.7,4.20375 -0.67875,2.395 -1.29625,-1.69875 -3.576253,-1.06625 -3.576253,0.57125 0,5.43 8.586253,5.77 8.586253,0.5725 0,-7.11875 -7.182503,-9.45625 -12.862503,-11.17875 -0.41375,-0.12625 -0.79125,-0.155 -1.16125,-0.4125 2.355,-0.54875 4.81625,-1.315 7.01,-2.29125 3.143753,-1.39875 5.951253,-3.80125 6.741253,-7.2825 0.45625,-2.01125 0.62625,-3.38 -0.97625,-4.91875 -1.1925,-1.145003 -1.93,-1.105003 -3.33,-1.105003 -2.407503,0 -4.271253,3.446253 -3.676253,4.953753 0.29875,0.755 0.8475,1.3425 1.815003,1.3425" />
    <path
       id="path4189"
       style="fill:#fcd029;fill-opacity:1;fill-rule:evenodd;stroke:none"
       d="m 137.71598,99.192477 c 0,2.483753 0.54875,2.718753 2.71875,2.718753 0.73875,0 0.28625,-0.84625 0.28625,-2.575003 0,-2.065 0.18125,-3.815 0.42,-5.59 0.5175,-3.84125 0.99625,-3.855 3.58625,-3.855 2.14125,0 5.94625,2.28625 7.2675,3.61 1.41625,1.41875 0.335,2.11375 -0.49625,3.44625 -0.31375,0.50375 -0.77875,1.13125 -1.1575,1.56125 -3.5725,4.061253 -4.68875,9.262503 1.1125,11.845003 2.6875,1.19625 4.22625,1.09375 7.075,0.635 5.63,-0.90625 3.41625,0.11 5.22625,2.6625 0.76,1.0725 1.39625,0.91875 2.29501,0.71 0.43,-0.89625 0.29499,-7.155 -2.0025,-7.155 -3.52501,0 -8.01876,2.87375 -11.51126,0.49125 -3.745,-2.55375 -1.2025,-4.775 0.23375,-6.90375 l 1.805,-2.343753 c 1.8425,-2.71375 3.26625,-4.25125 0.8725,-6.54125 l -1.2525,-1.03875 c -1.39375,-1.02375 -3.17874,-1.89 -4.84375,-2.59625 -2.315,-0.98 -6.2475,-2.38875 -8.63,-2.38875 -0.85,0 -1.45499,1.72625 -1.665,2.34125 -0.38,1.10875 -0.5825,2.105 -0.79,3.36 -0.37375,2.265 -0.55,4.93125 -0.55,7.60625" />
    <path
       id="path4191"
       style="fill:#fcd029;fill-opacity:1;fill-rule:evenodd;stroke:none"
       d="m 107.66348,116.79373 c 0,1.40625 0.28,4.17 0.8325,5.32 0.54875,1.14 1.09125,0.97625 1.88625,0.97625 1.12625,0 2.80625,-0.48625 3.835,-0.745 2.42375,-0.60875 5.055,-1.25625 7.29,0.3525 4.00875,2.88375 0.54625,5.36625 -1.2225,8.00375 -0.8,1.195 -3.0325,3.70375 -3.0325,5.41 0,3.50125 9.13,6.785 12.43,7.74625 3.6325,1.06125 4.59875,1.24125 5.63,-3.13625 0.3975,-1.685 1.5125,-9.86875 0.69375,-11.48625 -0.42375,-0.83625 -1.76874,-0.96375 -2.87,-0.7075 0.085,1.25625 0.27,2.89875 0.105,4.11125 -0.1725,1.2575 -0.17625,2.855 -0.49375,4.515 -0.32375,1.6925 -0.52125,3.67625 -3.145,3.36125 -2.57625,-0.30875 -4.82,-1.4525 -6.89375,-2.99125 -2.945,-2.18375 -0.73125,-3.1825 1.555,-6.42125 1.11375,-1.57625 2.29,-3.26875 2.29,-5.72375 0,-2.22 -1.23,-3.6925 -2.57375,-4.58125 -4.57,-3.01875 -7.76125,-1.1425 -11.45125,-1.1425 -1.55,0 -1.3025,-0.99375 -1.80875,-2.05375 -1.2225,-2.56 -3.05625,-2.07875 -3.05625,-0.8075" />
    <path
       id="path4193"
       style="fill:#fcd029;fill-opacity:1;fill-rule:evenodd;stroke:none"
       d="m 161.47098,119.65498 c -2.43125,0 -3.08625,-0.57125 -5.8675,-0.57125 -3.055,0 -6.24,1.575 -7.38375,3.49125 -0.74375,1.2425 -1.10125,2.54875 -0.68375,4.28875 0.64875,2.7 2.835,4.89625 4.1175,6.7575 1.3025,1.88875 1.87875,2.235 -1.3825,4.59875 -1.255,0.90875 -4.49875,2.3275 -5.9725,2.3275 -2.60875,0 -2.6875,-1.27625 -3.08875,-3.495 -0.3925,-2.18 -0.48875,-4.23125 -0.48875,-6.665 0,-0.87 0.1425,-1.04375 0.1425,-1.86 -3.4125,-0.795 -3.14625,1.62125 -3.1475,3.435 -0.004,3.03 0.375,6.98875 1.235,9.92625 0.64,2.19125 1.27,2.83375 3.04,2.5075 3.40251,-0.6275 9.4825,-2.8775 12.22375,-4.95125 3.61125,-2.73375 3.1,-4.1125 -0.45,-8.65 -1.28625,-1.64375 -3.17,-3.515 -3.17,-5.70125 0,-0.77875 1.1175,-1.98375 1.865,-2.42875 0.41375,-0.245 0.9525,-0.58 1.43625,-0.71125 3.71875,-1.005 6.2,1.13625 10.58,1.13625 1.45125,0 2.64875,-7.29875 1.00125,-7.29875 -1.855,0 -2.23,1.76 -2.70875,3.15875 -0.1975,0.57625 -0.53875,0.705 -1.2975,0.705" />
    <path
       id="path4195"
       style="fill:#fcd029;fill-opacity:1;fill-rule:evenodd;stroke:none"
       d="m 117.25223,94.041227 c 0,1.77 2.08625,4.38875 3.025,5.56 1.1075,1.386253 3.1275,3.763753 3.1275,5.457503 0,1.40875 -2.42,3.57875 -5.15125,3.57875 -3.0725,0 -5.88125,-1.43125 -8.44375,-1.43125 -1.9925,0 -2.14625,5.03125 -2.14625,6.5825 0,0.71 1.75125,1.635 3.05625,-1.09375 0.55625,-1.165 0.295,-1.60875 0.9725,-1.89 1.2825,-0.53375 5.21625,0.55125 5.98875,0.55125 2.2175,0 4.6175,-0.71875 5.98375,-1.60125 3.43125,-2.21125 3.555,-5.4475 1.76625,-8.725 l -2.80125,-3.923753 c -0.46,-0.5875 -1.37125,-1.5825 -1.37125,-2.4925 0,-1.3875 5.54125,-4.7225 8.01375,-4.7225 2.2825,0 3.09875,-0.0338 3.555,3.74375 0.24375,2.02125 0.66,5.0825 0.34,7.178753 -0.18875,1.23375 0.0675,1.0975 1.11375,1.0975 1.8575,0 2.00375,-1.34 2.00375,-3.005003 0,-1.50125 -0.57625,-13.02125 -3.00625,-13.02125 -3.7475,0 -10.525,2.87375 -13.71625,5.17125 l -0.2425,0.1875 c -0.71125,0.55125 -1.07,0.74875 -1.61875,1.6725 -0.0213,0.0375 -0.08,0.1475 -0.1,0.185 -0.23875,0.42875 -0.34875,0.5225 -0.34875,0.94" />
    <path
       id="path4197"
       style="fill:#fcd029;fill-opacity:1;fill-rule:evenodd;stroke:none"
       d="m 131.13223,115.21998 c 0.13375,0.49625 3.3775,5.57125 3.97875,6.61 0.775,1.33875 0.81125,0.81375 1.24875,0.61875 0.2775,-0.12375 0.33125,-0.15125 0.59125,-0.26625 1.24125,-0.555 7.29375,-3.52625 7.92,-3.6725 -0.1925,0.4 -0.26375,0.795 -0.47375,1.24375 -1.2675,2.715 -4.04625,4.91 -7.25374,4.91 -1.8775,0 -2.90376,0.0525 -4.63876,-1.085 -1.73375,-1.13625 -2.905,-2.9775 -3.68375,-4.9025 l -0.7875,-2.505 c -0.10125,-0.42125 -0.003,-0.66625 -0.47875,-0.66625 l -5.8675,0 0,2.43375 c 4.3975,0 3.39,-0.4625 4.1325,1.5925 1.0375,2.87375 3.1925,5.08875 5.93125,6.37375 4.6475,2.1825 13.59,0.755 16.165,-6.06625 0.18875,-0.49875 0.52,-1.615 0.5325,-2.18625 l 3.5775,0 0,-2.1475 -6.86875,0 c -0.465,0 -5.625,2.7425 -6.68,3.3375 -0.50875,0.285 -1.83,0.98125 -2.33625,1.09875 -0.145,-0.545 -1.945,-3.37 -2.4325,-4.2925 0.4275,-0.115 2.61,-1.28875 3.14875,-1.57375 -0.105,-0.45 -0.49,-1.00375 -0.71625,-1.43125 -0.35125,0.0937 -2.03,0.99125 -2.4775,1.2425 -0.885,0.49375 -1.65875,0.87125 -2.53125,1.33375" />
    <path
       id="path4199"
       style="fill:#fcd029;fill-opacity:1;fill-rule:evenodd;stroke:none"
       d="m 124.97973,112.50123 -3.2925,0 c 0,1.4775 -0.20625,2.145 0.43,2.145 l 6.44,0 c 0.6575,0 5.62625,-2.74375 6.535,-3.195 l 1.59,-0.84375 c 0.35125,-0.15875 0.185,-0.14125 0.60375,-0.25375 0.37625,0.2525 2.46875,3.605 2.57626,4.0075 -1.07376,0.56875 -2.08376,1.1525 -3.14876,1.71625 0.2875,0.5425 0.7125,0.8825 0.85875,1.43125 0.47,-0.10875 0.90125,-0.35625 1.28125,-0.57875 0.44,-0.25625 0.8075,-0.4675 1.295,-0.70875 0.52375,-0.26 2.13875,-1.02875 2.4325,-1.43125 l -4.43625,-7.2975 c -0.5625,0.0462 -5.86375,2.6075 -6.82125,3.05125 -0.43875,0.20375 -0.705,0.365 -1.1425,0.575 -0.45,0.21625 -0.79625,0.3125 -1.195,0.5225 0.1025,-1.22875 1.69875,-3.52375 2.71625,-4.295 3.48625,-2.645 8.84,-2.71875 11.59625,1.145 1.4025,1.965 1.94,3.43625 2.57375,6.155 l 5.01375,0.005 c 1.4575,0.025 1.28375,0.2225 1.28375,-1.72125 0,-0.7175 -2.35875,-0.42875 -3.72125,-0.42875 -0.21375,-2.5725 -3.03125,-6.14 -5.00625,-7.445 -0.515,-0.34 -1.045,-0.60875 -1.6675,-0.9075 -3.49,-1.6725 -9.5425,-0.63 -12.5875,1.68375 -1.83,1.39125 -3.24875,3.4375 -3.70875,5.73625 -0.0975,0.48875 0.0613,0.9325 -0.49875,0.9325" />
    <path
       id="path4201"
       style="fill:#fcd029;fill-opacity:1;fill-rule:evenodd;stroke:none"
       d="m 162.15223,135.36123 c 0.24,0.9175 4.0125,7.83375 4.185,8.4775 -0.54,-0.045 -1.685,-0.63875 -2.1675,-0.8375 l -4.3125,-1.84125 c -0.73,-0.31375 -1.4825,-0.72 -2.25,-0.89875 -0.15875,0.59625 -0.6975,0.91375 -1.10875,1.32375 -0.57,0.5675 -0.7375,0.73375 -1.18125,1.395 l 19.5775,9.7875 c -0.83625,-1.69125 -1.69,-3.28 -2.54625,-4.92375 l -7.8725,-14.7375 -2.32375,2.255" />
    <path
       id="path4203"
       style="fill:#fcd029;fill-opacity:1;fill-rule:evenodd;stroke:none"
       d="m 108.23598,96.617477 c 0.32625,-0.21875 0.38625,-0.32625 0.67875,-0.61 0.565,-0.55125 1.3775,-0.9775 2.04,-1.96625 l -3.72,-8.58625 c 0.55375,0.14875 -0.001,-0.0163 0.505,0.21 0.315,0.14 0.29125,0.12875 0.57875,0.28 l 7.5025,3.80375 0.635,-0.6525 c 0.0238,-0.02 0.0563,-0.045 0.08,-0.0638 0.52375,-0.4325 1.2175,-1.04125 1.57375,-1.57375 l -9.775,-5.25 c -0.46125,-0.27125 -0.77625,-0.38125 -1.2175,-0.64375 -0.43375,-0.2575 -0.745,-0.39875 -1.22,-0.64 l -6.035003,-3.26625 c -0.505,-0.27125 -0.835,-0.525 -1.3575,-0.64625 0.12875,0.55 0.34125,0.76125 0.54375,1.1725 l 4.272503,8.6075 c 0.25125,0.48875 0.34875,0.61125 0.5825,1.135 l 4.3325,8.69" />
    <path
       id="path4205"
       style="fill:#fcd029;fill-opacity:1;fill-rule:evenodd;stroke:none"
       d="m 155.31723,86.886227 c 0.28875,0.545 0.1275,0.3175 0.55375,0.73375 l 1.87875,1.985 c 0.6825,-0.3275 1.375,-0.5575 2.09875,-0.90625 l 4.32125,-1.83375 c 0.70125,-0.28875 1.49375,-0.625 2.1675,-0.98 -0.065,0.7675 -2.6525,5.44625 -3.10125,6.34375 -0.305,0.61 -0.90999,1.645 -1.04875,2.24125 l 2.255,2.325 10.48125,-19.64 c -0.57,0.1325 -4.09249,1.975 -4.91375,2.38625 l -12.19,6.1275 c -0.8975,0.44875 -1.66875,0.77625 -2.5025,1.2175" />
    <path
       id="path4207"
       style="fill:#fcd029;fill-opacity:1;fill-rule:evenodd;stroke:none"
       d="m 98.504727,152.85373 c 0.6125,-0.1425 5.147503,-2.7175 6.106253,-3.195 3.28125,-1.6275 7.76625,-4.3275 10.97,-5.91625 l 2.52875,-1.335 c -0.63625,-0.94875 -1.8025,-1.5625 -2.28875,-2.28875 l -8.58625,4.2925 c 0.68125,-1.28875 1.25375,-2.92625 1.85625,-4.29625 0.315,-0.7175 0.575,-1.37375 0.88,-2.125 0.255,-0.6225 0.66375,-1.56 0.98375,-2.165 l -2.71875,-2.575 -3.8825,7.85125 c -0.1175,0.23 -0.195,0.4125 -0.32875,0.6725 -0.23,0.445 -0.43375,0.8675 -0.63,1.23125 -0.4375,0.81375 -0.76625,1.5425 -1.2,2.3775 -0.12125,0.235 -0.1575,0.31375 -0.28375,0.57375 l -3.406253,6.8975" />
    <path
       id="path4209"
       style="fill:#fcd029;fill-opacity:1;fill-rule:evenodd;stroke:none"
       d="m 152.59848,125.80873 c 0,1.04 0.0175,1.88625 0.89625,2.68125 2.23375,2.02 5.2575,0.2 5.2575,-1.96625 0,-0.9575 0.13,-1.27625 -0.47125,-2.10375 -2.05875,-2.83625 -5.6825,-0.89125 -5.6825,1.38875" />
    <path
       id="path4211"
       style="fill:#fcd029;fill-opacity:1;fill-rule:evenodd;stroke:none"
       d="m 115.10473,104.05748 c 0,3.145 4.0675,4.60375 5.865,1.715 0.99875,-1.60625 0.4925,-4.72 -3.0025,-4.72 -1.5125,0 -2.8625,1.5475 -2.8625,3.005" />
    <path
       id="path4213"
       style="fill:#fcd029;fill-opacity:1;fill-rule:evenodd;stroke:none"
       d="m 155.60348,107.34873 c 1.67875,0 3.14875,-1.5125 3.14875,-2.575 0,-1.42 0.13376,-1.81375 -0.81875,-2.76 -1.0875,-1.0825 -2.53875,-1.29875 -3.8125,-0.5825 -0.465,0.26125 -0.535,0.3275 -0.85249,0.72 -0.92001,1.1425 -0.95876,2.695 -0.23751,3.76375 0.13626,0.2025 -0.004,0.0188 0.1925,0.2375 0.49875,0.55375 1.45625,1.19625 2.38,1.19625" />
    <path
       id="path4215"
       style="fill:#fcd029;fill-opacity:1;fill-rule:evenodd;stroke:none"
       d="m 121.40223,126.66748 0,-0.71625 c 0,-2.84375 -4.465,-4.33 -5.87625,-1.1525 -0.14,0.315 -0.385,0.75125 -0.4025,1.16 -0.055,1.30875 0.5975,2.3225 1.61125,2.94375 0.31,0.19 0.84875,0.26375 1.2375,0.35375 0.705,0.1625 0.5475,0.055 0.93625,-0.0613 0.0362,-0.01 0.0737,-0.0237 0.11125,-0.0337 0.84625,-0.23125 0.64875,0.0137 1.2075,-0.52 0.4375,-0.4175 1.175,-1.1975 1.175,-1.97375" />
    <path
       id="path4217"
       style="fill:#fcd029;fill-opacity:1;fill-rule:evenodd;stroke:none"
       d="m 110.81223,106.48998 c 1.3675,0 1.21,0.0175 2.40625,-1.74375 l 4.32,-6.556253 c 0,-0.89125 -1.11375,-2.16625 -1.8,-1.66625 -0.065,0.0475 -0.57125,0.68625 -0.6525,0.79 l -0.77625,0.94 c -0.92375,1.08625 -4.32125,5.988753 -4.63875,6.967503 -0.27,0.83 0.60375,1.26875 1.14125,1.26875" />
    <path
       id="path4219"
       style="fill:#fcd029;fill-opacity:1;fill-rule:evenodd;stroke:none"
       d="m 156.46223,132.39123 c 0,0.38875 0.26,0.7725 0.5325,1.04125 0.28125,0.2775 0.62625,0.43625 1.04125,0.5325 1.1125,-0.745 6.2975,-8.40875 6.2975,-9.015 0,-1.18625 -1.93375,-1.6075 -2.73,-0.5825 l -2.25,3.33 c -0.4925,0.7375 -2.89125,4.0725 -2.89125,4.69375" />
    <path
       id="path4221"
       style="fill:#fcd029;fill-opacity:1;fill-rule:evenodd;stroke:none"
       d="m 156.46223,97.761227 c 0,1.04125 2.1275,3.615003 2.76375,4.678753 l 1.50125,2.21875 c 0.86625,1.29875 0.88375,1.83125 2.3175,1.83125 0.59375,0 1.28875,-0.40125 1.28875,-1.00125 0,-0.89 -5.14875,-8.293753 -6.44,-9.158753 -0.405,0.215 -1.43125,0.8975 -1.43125,1.43125" />
    <path
       id="path4223"
       style="fill:#fcd029;fill-opacity:1;fill-rule:evenodd;stroke:none"
       d="m 115.96348,133.96498 c 0.72,-0.1675 1.575,-0.8675 1.575,-1.7175 0,-0.395 -0.78875,-1.155 -1.025,-1.55125 l -2.57875,-4.00375 c -0.26375,-0.40625 -0.52,-0.65625 -0.7925,-1.06875 -0.18375,-0.28 -0.15125,-0.2775 -0.305,-0.5525 -0.1325,-0.23375 -0.22875,-0.37875 -0.40375,-0.5975 -1.095,-1.38 -3.405,-0.40375 -2.7225,0.84625 0.135,0.2475 0.26625,0.4175 0.43375,0.72625 l 1.3475,2.0875 c 0.235,0.28625 0.2775,0.3225 0.49375,0.65 0.74375,1.1275 3.3,4.7275 3.9775,5.18125" />
    <path
       id="path4225"
       style="fill:#fcd029;fill-opacity:1;fill-rule:evenodd;stroke:none"
       d="m 169.34098,118.36748 c 0.93625,-0.0213 5.36,-2.3525 6.6875,-2.90125 0.53875,-0.2225 0.585,-0.10625 0.8975,-0.5325 -1.1375,-0.265 -6.69125,-3.2175 -7.585,-3.2925 l 0,6.72625" />
    <path
       id="path4227"
       style="fill:#fcd029;fill-opacity:1;fill-rule:evenodd;stroke:none"
       d="m 136.42723,155.14373 2.67125,-5.77375 c 0.28375,-0.57375 0.81875,-1.07875 0.0575,-1.2325 -0.395,-0.0788 -1.62125,-0.0513 -2.0525,-0.11 -0.68875,-0.0937 -1.41,-0.0138 -2.11125,-0.0338 -0.7575,-0.0225 -1.08125,-0.14875 -1.99875,-0.14875 0.715,1.3525 2.80375,6.83625 3.43375,7.29875" />
    <path
       id="path4229"
       style="fill:#fcd029;fill-opacity:1;fill-rule:evenodd;stroke:none"
       d="m 97.503477,114.50373 0,0.28625 c 0.48125,0.04 2.861253,1.22875 3.482503,1.525 0.59625,0.28625 1.0225,0.5475 1.6275,0.80625 0.68875,0.29375 1.15625,0.49875 1.75875,0.8175 0,-0.975 0.28125,-3.085 0.28125,-4.87125 0,-0.82875 0.1475,-0.99375 0.1475,-1.71125 -0.45625,0.0375 -1.4225,0.5225 -1.8575,0.71625 l -3.540003,1.6125 c -0.59125,0.2525 -1.385,0.69875 -1.9,0.81875" />
    <path
       id="path4231"
       style="fill:#fcd029;fill-opacity:1;fill-rule:evenodd;stroke:none"
       d="m 133.70848,82.878727 c 2.24125,0 4.20875,0.2875 6.5825,0.2875 l -3.43375,-7.15625 -2.3875,5.055 c -0.22,0.44 -0.66,1.3825 -0.76125,1.81375" />
    <path
       id="path4233"
       style="fill:#fcd029;fill-opacity:1;fill-rule:evenodd;stroke:none"
       d="m 123.26223,93.754977 2.4325,4.435 c 0.67625,-0.18 3.1875,-1.955 4.00625,-2.14625 -0.15875,-0.68125 -2.27,-3.8275 -2.4325,-4.43625 -0.45625,0.0388 -3.36125,1.715 -4.00625,2.1475" />
    <path
       id="path4235"
       style="fill:#fcd029;fill-opacity:1;fill-rule:evenodd;stroke:none"
       d="m 122.68973,137.11248 c 0.655,0.3475 1.2075,0.7125 1.90375,1.10125 0.54,0.30125 1.49875,0.99625 2.1025,1.04625 0.41125,-0.77625 0.78375,-1.27375 1.1925,-2.1 0.39625,-0.80375 0.83,-1.4175 1.24125,-2.1925 -0.60625,-0.40625 -3.4225,-2.09875 -4.0075,-2.1475 l -1.175,2.11625 c -0.22875,0.415 -0.41375,0.65875 -0.6375,1.08 -0.2575,0.485 -0.34375,0.685 -0.62,1.09625" />
    <path
       id="path4237"
       style="fill:#fcd029;fill-opacity:1;fill-rule:evenodd;stroke:none"
       d="m 144.44098,134.96748 c 0.21625,0.4075 0.33375,0.625 0.57375,1 l 1.86,3.2925 c 0.69,-0.0575 3.3375,-1.69875 4.0075,-2.1475 -0.4075,-0.76625 -0.81,-1.40875 -1.24,-2.195 -0.3075,-0.56125 -0.935,-1.8025 -1.33625,-2.0975 l -3.865,2.1475" />
    <path
       id="path4239"
       style="fill:#fcd029;fill-opacity:1;fill-rule:evenodd;stroke:none"
       d="m 150.73848,93.754977 -0.45125,-0.265 c -0.78,-0.45125 -2.8075,-1.83125 -3.4125,-1.8825 -0.36374,0.68625 -0.64875,1.39 -1.0625,2.0875 -0.43125,0.7275 -0.8525,1.355 -1.2275,2.0625 0.48625,0.72625 1.1175,0.815 1.89,1.25875 0.52125,0.3 1.505,1.04875 1.97375,1.17375 l 1.1475,-2.28625 c 0.20875,-0.3675 0.42625,-0.6175 0.6675,-1.05375 l 0.475,-1.095" />
    <path
       id="path4241"
       style="fill:#fcd029;fill-opacity:1;fill-rule:evenodd;stroke:none"
       d="m 111.81348,113.21623 0,4.15 4.57875,0 c 0,-4.96875 0.28,-4.58625 -0.755,-4.51875 -0.33375,0.0213 -0.15375,0 -0.51375,0.009 -1.27625,0.0325 -3.31,-0.46875 -3.31,0.36" />
    <path
       id="path4243"
       style="fill:#fcd029;fill-opacity:1;fill-rule:evenodd;stroke:none"
       d="m 157.46473,112.64373 0,4.43625 4.57875,0 0,-4.43625 c -1.43,-0.33375 -3.135,-0.15125 -4.57875,0" />
    <path
       id="path4245"
       style="fill:#fcd029;fill-opacity:1;fill-rule:evenodd;stroke:none"
       d="m 158.60973,90.177477 c 0.41125,0.615 0.995,1.06625 1.5375,1.61 0.46875,0.4675 1.115,1.3675 1.7525,1.5375 0.2525,-1.07875 2.325,-4.5025 2.57625,-5.58 -0.68,0.1575 -0.9175,0.39 -1.39125,0.61125 l -4.475,1.82125" />
    <path
       id="path4247"
       style="fill:#fcd029;fill-opacity:1;fill-rule:evenodd;stroke:none"
       d="m 109.23723,142.12123 c 0.75875,-0.17625 3.17125,-1.3525 4.2,-1.81125 0.445,-0.1975 1.11375,-0.525 1.525,-0.62125 -0.13125,-0.5625 -1.74625,-2.03 -2.2675,-2.45375 -0.31625,-0.2575 -0.645,-0.5925 -1.02375,-0.69375 -0.045,0.5325 -2.1975,5.13625 -2.43374,5.58" />
    <path
       id="path4249"
       style="fill:#fcd029;fill-opacity:1;fill-rule:evenodd;stroke:none"
       d="m 158.75223,139.68873 c 1.3725,0.72625 4.4125,1.80375 5.72375,2.4325 -0.23125,-0.995 -2.2975,-4.38625 -2.57625,-5.58 -0.51625,0.1375 -3.01,2.63125 -3.1475,3.1475" />
    <path
       id="path4251"
       style="fill:#fcd029;fill-opacity:1;fill-rule:evenodd;stroke:none"
       d="m 111.67098,93.324977 c 0.45,-0.12 0.78,-0.525 1.08,-0.78 l 0.67375,-0.61375 c 0.7075,-0.705 1.405,-1.18875 1.5375,-1.75375 -1.0325,-0.24125 -4.55875,-2.16125 -5.725,-2.4325 0.34125,0.64375 2.2525,4.805 2.43375,5.58" />
    <path
       id="path4253"
       style="fill:#fcd029;fill-opacity:1;fill-rule:evenodd;stroke:none"
       d="m 127.26848,129.09998 c 0.42375,0.0987 0.655,0.24375 0.995,0.43625 l 1.965,1.04 c 0.37875,0.2125 0.69875,0.3425 1.0475,0.5275 0.23,-0.435 0.8175,-1.36375 0.85875,-1.86125 -0.52375,-0.12125 -0.38125,-0.15125 -0.985,-0.445 -0.8375,-0.4075 -2.48875,-1.4 -3.165,-1.5575 -0.44375,0.92375 -0.70125,1.21125 -0.71625,1.86" />
    <path
       id="path4255"
       style="fill:#fcd029;fill-opacity:1;fill-rule:evenodd;stroke:none"
       d="m 125.98098,131.81873 4.0075,2.00375 c 0.16875,-0.32 0.255,-0.505 0.4575,-0.83 0.24,-0.38 0.35625,-0.5 0.4,-1.03 -0.55,-0.12875 -0.9825,-0.4275 -1.46,-0.68625 l -2.69,-1.3175 c -0.17625,0.755 -0.65,1.075 -0.715,1.86" />
    <path
       id="path4257"
       style="fill:#fcd029;fill-opacity:1;fill-rule:evenodd;stroke:none"
       d="m 127.69848,101.91123 0.86125,1.715 c 1.02625,-0.2375 3.31125,-1.7775 4.1475,-2.00125 -0.1375,-0.58875 -0.5875,-1.41375 -1.0025,-1.717503 -0.46375,0.108753 -0.56375,0.262503 -0.965,0.466253 -0.19125,0.0975 -0.305,0.135 -0.485,0.23 l -2.55625,1.3075" />
    <path
       id="path4259"
       style="fill:#fcd029;fill-opacity:1;fill-rule:evenodd;stroke:none"
       d="m 126.55348,99.048727 c 0.0238,1.067503 0.51625,1.005003 0.715,1.860003 1.0725,-0.24875 3.2975,-1.803753 4.15125,-2.002503 -0.0662,-0.7875 -0.65125,-0.93 -0.71625,-1.7175 -0.86,0.02 -1.47625,0.555 -2.10125,0.905 -0.47875,0.26875 -1.56125,0.8425 -2.04875,0.955" />
    <path
       id="path4261"
       style="fill:#fcd029;fill-opacity:1;fill-rule:evenodd;stroke:none"
       d="m 141.43598,101.62498 0.9925,0.43875 c 0.33,0.1775 0.62875,0.375 1.01,0.56375 0.55,0.2725 1.56625,0.865 2.1475,1.00125 0.27376,-0.51625 0.7,-1.13625 0.71625,-1.86 -0.92875,-0.21625 -3.2375,-1.715 -3.86375,-1.861253 -0.415,0.303753 -0.86499,1.128753 -1.0025,1.717503" />
    <path
       id="path4263"
       style="fill:#fcd029;fill-opacity:1;fill-rule:evenodd;stroke:none"
       d="m 142.72473,132.10498 0.8575,1.7175 4.0075,-2.00375 c -0.0187,-0.82875 -0.5325,-1.0775 -0.715,-1.86 -0.32,0.085 -1.80875,0.8725 -2.19625,1.10125 -1.15,0.6775 -1.0175,0.4175 -1.95375,1.045" />
    <path
       id="path4265"
       style="fill:#fcd029;fill-opacity:1;fill-rule:evenodd;stroke:none"
       d="m 141.43598,129.24248 c 0.17625,0.7575 0.6975,1.25375 0.85875,1.86125 l 4.0075,-2.1475 c -0.22625,-0.4725 -0.1,-0.5525 -0.71625,-1.71625 -0.9175,0.21375 -3.25375,1.79375 -4.15,2.0025" />
    <path
       id="path4267"
       style="fill:#fcd029;fill-opacity:1;fill-rule:evenodd;stroke:none"
       d="m 142.72473,98.906227 c 1.30375,0.30375 2.7925,1.687503 4.15,2.002503 0.16501,-0.62 0.4975,-0.7825 0.715,-1.716253 l -3.86375,-2.00375 c -0.35875,0.24125 -0.95625,1.17875 -1.00125,1.7175" />
    <path
       id="path4269"
       style="fill:#fcd029;fill-opacity:1;fill-rule:evenodd;stroke:none"
       d="m 117.10848,113.21623 0,4.2925 c 2.4825,0 1.64,0.12625 1.64625,-3.005 l 0.0712,-1.2875 c 0,-0.45 0.15375,-0.36625 -0.85875,-0.36625 -0.78625,0 -0.85875,-0.11125 -0.85875,0.36625" />
    <path
       id="path4271"
       style="fill:#fcd029;fill-opacity:1;fill-rule:evenodd;stroke:none"
       d="m 155.17473,117.07998 1.57423,0 0,-4.5791 -1.57423,0 0,4.5791 z" />
    <path
       id="path4273"
       style="fill:#fcd029;fill-opacity:1;fill-rule:evenodd;stroke:none"
       d="m 150.73848,93.754977 0,0.14375 0.16625,-0.12 -0.16625,-0.0237" />
  </g>
</svg>
